<svg width="17" height="17" viewBox="0 0 17 17" fill="none" xmlns="http://www.w3.org/2000/svg">
    <path d="M6.94253 8.51314L0.323055 1.89347C-0.107727 1.46289 -0.107727 0.766701 0.323055 0.33612C0.753639 -0.0944618 1.44983 -0.0944618 1.88041 0.33612L8.50008 6.95578L15.1196 0.33612C15.5503 -0.0944618 16.2463 -0.0944618 16.6769 0.33612C17.1077 0.766701 17.1077 1.46289 16.6769 1.89347L10.0574 8.51314L16.6769 15.1328C17.1077 15.5634 17.1077 16.2596 16.6769 16.6902C16.4623 16.9049 16.1802 17.0128 15.8982 17.0128C15.6163 17.0128 15.3343 16.9049 15.1196 16.6902L8.50008 10.0705L1.88041 16.6902C1.66563 16.9049 1.38368 17.0128 1.10173 17.0128C0.819788 17.0128 0.537844 16.9049 0.323055 16.6902C-0.107727 16.2596 -0.107727 15.5634 0.323055 15.1328L6.94253 8.51314Z"
          fill="#8F8F8F"/>
</svg>
