<svg width="28" height="28" viewBox="0 0 28 28" fill="none" xmlns="http://www.w3.org/2000/svg">
<path d="M11.4347 14.022L0.532091 3.11904C-0.177435 2.40985 -0.177435 1.26318 0.532091 0.55399C1.24129 -0.155204 2.38795 -0.155204 3.09715 0.55399L14.0001 11.457L24.9028 0.55399C25.6123 -0.155204 26.7587 -0.155204 27.4679 0.55399C28.1774 1.26318 28.1774 2.40985 27.4679 3.11904L16.5652 14.022L27.4679 24.925C28.1774 25.6342 28.1774 26.7808 27.4679 27.49C27.1144 27.8438 26.6497 28.0215 26.1853 28.0215C25.7209 28.0215 25.2566 27.8438 24.9028 27.49L14.0001 16.5871L3.09715 27.49C2.74338 27.8438 2.279 28.0215 1.81462 28.0215C1.35024 28.0215 0.885857 27.8438 0.532091 27.49C-0.177435 26.7808 -0.177435 25.6342 0.532091 24.925L11.4347 14.022Z" fill="#CDCDCD"/>
</svg>
