<?xml version="1.0" encoding="UTF-8" standalone="no"?>
<svg
   xmlns:dc="http://purl.org/dc/elements/1.1/"
   xmlns:cc="http://creativecommons.org/ns#"
   xmlns:rdf="http://www.w3.org/1999/02/22-rdf-syntax-ns#"
   xmlns:svg="http://www.w3.org/2000/svg"
   xmlns="http://www.w3.org/2000/svg"
   xmlns:sodipodi="http://sodipodi.sourceforge.net/DTD/sodipodi-0.dtd"
   xmlns:inkscape="http://www.inkscape.org/namespaces/inkscape"
   id="Capa_1"
   enable-background="new 0 0 512.115 512.115"
   height="512"
   viewBox="0 0 512.115 512.115"
   width="512"
   version="1.1"
   sodipodi:docname="constructor.svg"
   inkscape:version="1.0.1 (3bc2e813f5, 2020-09-07)">
  <metadata
     id="metadata889">
    <rdf:RDF>
      <cc:Work
         rdf:about="">
        <dc:format>image/svg+xml</dc:format>
        <dc:type
           rdf:resource="http://purl.org/dc/dcmitype/StillImage" />
      </cc:Work>
    </rdf:RDF>
  </metadata>
  <defs
     id="defs887" />
  <sodipodi:namedview
     pagecolor="#ffffff"
     bordercolor="#666666"
     borderopacity="1"
     objecttolerance="10"
     gridtolerance="10"
     guidetolerance="10"
     inkscape:pageopacity="0"
     inkscape:pageshadow="2"
     inkscape:window-width="1600"
     inkscape:window-height="837"
     id="namedview885"
     showgrid="false"
     inkscape:zoom="0.92531551"
     inkscape:cx="272.71876"
     inkscape:cy="212.24066"
     inkscape:window-x="-8"
     inkscape:window-y="-8"
     inkscape:window-maximized="1"
     inkscape:current-layer="Capa_1" />
  <path
     d="m 486.457,256.115 h -204.8 c -2.991,0 -5.863,0.513 -8.532,1.456 l -9.002,24.144 v 195.8 c 0,14.138 11.461,25.6 25.6,25.6 h 196.733 l 24.149,-8.067 c 0.943,-2.669 1.451,-5.542 1.451,-8.533 v -204.8 c 10e-4,-14.139 -11.46,-25.6 -25.599,-25.6 z"
     fill="#a4ccff"
     id="path862"
     style="fill:#184656;fill-opacity:1" />
  <path
     d="m 324.324,495.048 c -28.277,0 -51.2,-22.923 -51.2,-51.2 v -186.28 c -9.92,3.527 -17.067,13.017 -17.067,24.147 v 204.8 c 0,14.138 11.462,25.6 25.6,25.6 h 204.8 c 11.13,0 20.622,-7.146 24.149,-17.067 z"
     fill="#8bb3ea"
     id="path864"
     style="fill:#184635;fill-opacity:1" />
  <path
     d="m 230.457,256.115 h -204.8 c -2.991,0 -5.863,0.513 -8.532,1.456 l -9.002,24.144 v 195.8 c 0,14.138 11.461,25.6 25.6,25.6 h 196.733 l 24.149,-8.067 c 0.943,-2.669 1.451,-5.542 1.451,-8.533 v -204.8 c 0.001,-14.139 -11.46,-25.6 -25.599,-25.6 z"
     fill="#b3e59f"
     id="path866"
     style="fill:#51bfa6;fill-opacity:1" />
  <path
     d="m 68.324,495.048 c -28.277,0 -51.2,-22.923 -51.2,-51.2 v -186.28 c -9.92,3.527 -17.067,13.017 -17.067,24.147 v 204.8 c 0,14.138 11.462,25.6 25.6,25.6 h 204.8 c 11.13,0 20.622,-7.146 24.149,-17.067 z"
     fill="#95d6a4"
     id="path868"
     style="fill:#5190a6;fill-opacity:1" />
  <path
     d="m 358.457,0 h -204.8 c -2.991,0 -5.863,0.513 -8.532,1.456 L 136.124,25.6 v 195.8 c 0,14.138 11.461,25.6 25.6,25.6 h 196.733 l 24.149,-8.067 c 0.943,-2.669 1.451,-5.542 1.451,-8.533 V 25.6 C 384.057,11.461 372.596,0 358.457,0 Z"
     fill="#ff8086"
     id="path870"
     style="fill:#f57359;fill-opacity:1" />
  <g
     fill="#ffffff"
     id="g878">
    <path
       d="M 311.249,184.842 265.824,64.483 c -1.758,-4.25 -5.85,-6.992 -10.442,-6.992 -0.008,0 -0.017,0 -0.017,0 -4.6,0.008 -8.7,2.767 -10.517,7.217 l -45.75,120.117 c -1.675,4.4 0.533,9.333 4.942,11.008 4.358,1.683 9.317,-0.533 11.008,-4.942 l 9.3,-24.417 h 61.727 l 9.207,24.4 c 1.292,3.417 4.533,5.517 7.983,5.517 1,0 2.025,-0.175 3.017,-0.55 4.409,-1.666 6.634,-6.583 4.967,-10.999 z m -80.399,-35.434 24.507,-64.342 24.278,64.342 z"
       id="path872" />
    <path
       d="m 160.164,379.411 c 5.607,-6.167 9.119,-14.278 9.119,-23.253 0,-19.133 -15.567,-34.7 -34.7,-34.7 h -33.042 c -4.717,0 -8.533,3.817 -8.533,8.533 v 113.742 c 0,2.267 0.908,4.45 2.517,6.05 1.592,1.592 3.758,2.483 6.017,2.483 h 0.033 c 0,0 30.4,-0.133 38.775,-0.133 21.583,0 39.15,-17.567 39.15,-39.15 -0.001,-14.324 -7.822,-26.747 -19.336,-33.572 z m -25.582,-40.886 c 9.725,0 17.633,7.908 17.633,17.633 0,9.725 -7.908,17.642 -17.633,17.642 -2.573,0 -24.508,0.033 -24.508,0.033 v -35.308 z m 5.767,96.542 c -5.525,0 -20.608,0.058 -30.275,0.1 v -44.22 c 3.594,-0.015 30.275,-0.046 30.275,-0.046 12.175,0 22.083,9.908 22.083,22.083 0,12.174 -9.908,22.083 -22.083,22.083 z"
       id="path874" />
    <path
       d="m 429.291,421.125 c -3.642,-3.025 -9.008,-2.533 -12.017,1.083 -1.158,1.383 -2.4,2.667 -3.742,3.858 -6.8,6.058 -15.392,9.133 -25.533,9.133 -26.658,0 -48.342,-21.683 -48.342,-48.342 0,-26.65 21.683,-48.333 48.342,-48.333 9.692,0 19.033,2.85 27.025,8.25 3.917,2.625 9.208,1.6 11.85,-2.3 2.633,-3.908 1.608,-9.208 -2.3,-11.85 -10.825,-7.308 -23.467,-11.167 -36.575,-11.167 -36.067,0 -65.408,29.342 -65.408,65.4 0,36.067 29.342,65.408 65.408,65.408 14.25,0 27.008,-4.65 36.875,-13.45 1.958,-1.742 3.817,-3.65 5.5,-5.675 3.025,-3.615 2.533,-8.998 -1.083,-12.015 z"
       id="path876" />
  </g>
  <path
     d="m 196.324,238.933 c -28.277,0 -51.2,-22.923 -51.2,-51.2 V 1.453 C 135.204,4.98 128.057,14.47 128.057,25.6 v 204.8 c 0,14.138 11.462,25.6 25.6,25.6 h 204.8 c 11.13,0 20.622,-7.146 24.149,-17.067 z"
     fill="#e5646e"
     id="path880"
     style="fill:#b27359;fill-opacity:1" />
</svg>
