<svg width="44" height="37" viewBox="0 0 44 37" fill="none" xmlns="http://www.w3.org/2000/svg">
<g clip-path="url(#clip0)">
<path d="M2.53446 17.0547H37.47L31.6828 12.0088C31.0371 11.4457 31.0346 10.5306 31.6773 9.96485C32.32 9.39901 33.3645 9.39691 34.0103 9.95993L42.6299 17.4756C42.6305 17.476 42.6309 17.4765 42.6314 17.4769C43.2755 18.04 43.2775 18.9581 42.6315 19.5231C42.631 19.5235 42.6305 19.524 42.63 19.5244L34.0104 27.04C33.3648 27.603 32.3202 27.601 31.6775 27.0351C31.0348 26.4694 31.0372 25.5543 31.683 24.9912L37.47 19.9453H2.53446C1.62337 19.9453 0.884834 19.2982 0.884834 18.5C0.884834 17.7017 1.62337 17.0547 2.53446 17.0547Z" fill="#4B2647"/>
</g>
<defs>
<clipPath id="clip0">
<rect width="42.2304" height="37" fill="white" transform="matrix(-1 0 0 1 43.1152 0)"/>
</clipPath>
</defs>
</svg>
