<svg height="512pt" viewBox="0 0 512 512" width="512pt" xmlns="http://www.w3.org/2000/svg"><path d="m468.78125 506.695312c6.941406 0 12.289062-6.4375 10.671875-13.191406-.011719-.046875-.023437-.09375-.03125-.140625 0 0-5.433594-21.742187-9.984375-39.925781-5.253906-21.023438-24.054688-35.703125-45.722656-35.703125h-10.5625c-6.277344-18.660156-23.9375-32.136719-44.683594-32.136719h-53.109375c-23.140625 0-42.695313 16.5625-46.496094 39.382813l-11.59375 69.554687c-.003906.042969-.011719.085938-.019531.128906-1 6.347657 4.097656 12.03125 10.523438 12.03125zm0 0" fill="#ffdc5a"/><path d="m43.21875 506.695312h104.226562c6.945313 0 12.292969-6.4375 10.675782-13.191406-.011719-.046875-.023438-.09375-.035156-.140625 0 0-5.433594-21.742187-9.988282-39.933593-5.253906-21.019532-24.050781-35.695313-45.71875-35.695313h-14.089844c-21.667968 0-40.472656 14.679687-45.722656 35.695313-4.554687 18.191406-9.984375 39.933593-9.984375 39.933593-.011719.046875-.023437.09375-.035156.140625-1.617187 6.753906 3.730469 13.191406 10.671875 13.191406zm0 0" fill="#fffa96"/><path d="m448.800781 126.398438c-34.851562 0-63.199219-28.351563-63.199219-63.199219 0-34.847657 28.347657-63.199219 63.199219-63.199219 34.847657 0 63.199219 28.351562 63.199219 63.199219 0 34.847656-28.351562 63.199219-63.199219 63.199219zm0 0" fill="#ffdc5a"/><path d="m336.332031 224.933594c-8.28125 0-15 6.714844-15 15v32.132812c0 9.457032-7.65625 17.132813-17.132812 17.132813h-33.199219v-49.265625c0-8.285156-6.714844-15-15-15s-15 6.714844-15 15v49.265625h-33.199219c-9.449219 0-17.132812-7.6875-17.132812-17.132813v-32.132812c0-8.285156-6.71875-15-15-15-8.285157 0-15 6.714844-15 15v32.132812c0 6.042969 1.15625 11.820313 3.238281 17.132813h-36.4375c-9.515625 0-17.136719-7.714844-17.136719-17.132813v-32.132812c0-8.285156-6.714843-15-15-15-8.28125 0-15 6.714844-15 15v32.132812c0 26.261719 21.308594 47.132813 47.136719 47.132813h113.40625c-.65625 7.796875-4 15.042969-9.59375 20.644531l-19.972656 19.96875c-11.9375 11.933594-18.507813 27.804688-18.507813 44.683594v77.503906c0 8.285156 6.714844 15 15 15 8.285157 0 15-6.714844 15-15v-77.503906c0-8.867188 3.453125-17.203125 9.722657-23.472656l19.96875-19.96875c11.265624-11.269532 17.746093-26.039063 18.441406-41.855469h33.265625c26.339843 0 47.132812-21.390625 47.132812-47.132813v-32.132812c0-8.285156-6.714843-15-15-15zm0 0" fill="#875140"/><path d="m497 512h-482c-8.285156 0-15-6.714844-15-15s6.714844-15 15-15h482c8.285156 0 15 6.714844 15 15s-6.714844 15-15 15zm0 0" fill="#ffbe1e"/><path d="m497 482h-274.199219v30h274.199219c8.285156 0 15-6.714844 15-15s-6.714844-15-15-15zm0 0" fill="#ffa000"/><path d="m336.332031 224.933594c-8.28125 0-15 6.714844-15 15v32.132812c0 9.457032-7.65625 17.132813-17.132812 17.132813h-33.199219v-49.265625c0-8.285156-6.714844-15-15-15s-15 6.714844-15 15v49.265625h-18.199219v30h18.074219c-.65625 7.796875-4 15.042969-9.59375 20.644531l-8.480469 8.476562v56.175782c0-8.867188 3.453125-17.203125 9.722657-23.472656l19.972656-19.96875c11.265625-11.269532 17.742187-26.039063 18.4375-41.855469h33.265625c26.339843 0 47.132812-21.390625 47.132812-47.132813v-32.132812c0-8.285156-6.714843-15-15-15zm0 0" fill="#504541"/><path d="m416.667969 254.933594h-401.667969c-8.285156 0-15-6.714844-15-15 0-39.203125 28.605469-71.847656 66.039062-78.164063 6.175782-23.714843 27.773438-41.269531 53.394532-41.269531h192.800781c25.621094 0 47.21875 17.554688 53.394531 41.269531 37.433594 6.316407 66.039063 38.960938 66.039063 78.164063 0 8.285156-6.71875 15-15 15zm0 0" fill="#9adb05"/><path d="m365.628906 161.769531c-6.175781-23.714843-27.773437-41.269531-53.394531-41.269531h-89.433594v134.433594h193.867188c8.28125 0 15-6.714844 15-15 0-39.203125-28.605469-71.847656-66.039063-78.164063zm0 0" fill="#00ca76"/></svg>