<?xml version="1.0" encoding="UTF-8" standalone="no"?>
<svg
   xmlns:dc="http://purl.org/dc/elements/1.1/"
   xmlns:cc="http://creativecommons.org/ns#"
   xmlns:rdf="http://www.w3.org/1999/02/22-rdf-syntax-ns#"
   xmlns:svg="http://www.w3.org/2000/svg"
   xmlns="http://www.w3.org/2000/svg"
   xmlns:sodipodi="http://sodipodi.sourceforge.net/DTD/sodipodi-0.dtd"
   xmlns:inkscape="http://www.inkscape.org/namespaces/inkscape"
   version="1.1"
   id="Capa_1"
   x="0px"
   y="0px"
   viewBox="0 0 512 512"
   style="enable-background:new 0 0 512 512;"
   xml:space="preserve"
   sodipodi:docname="sprint.svg"
   inkscape:version="1.0.1 (3bc2e813f5, 2020-09-07)"><metadata
   id="metadata896"><rdf:RDF><cc:Work
       rdf:about=""><dc:format>image/svg+xml</dc:format><dc:type
         rdf:resource="http://purl.org/dc/dcmitype/StillImage" /></cc:Work></rdf:RDF></metadata><defs
   id="defs894">
	
	
	
	
	
</defs><sodipodi:namedview
   pagecolor="#ffffff"
   bordercolor="#666666"
   borderopacity="1"
   objecttolerance="10"
   gridtolerance="10"
   guidetolerance="10"
   inkscape:pageopacity="0"
   inkscape:pageshadow="2"
   inkscape:window-width="1600"
   inkscape:window-height="837"
   id="namedview892"
   showgrid="false"
   inkscape:zoom="0.92531551"
   inkscape:cx="194.90906"
   inkscape:cy="256.4531"
   inkscape:window-x="-8"
   inkscape:window-y="-8"
   inkscape:window-maximized="1"
   inkscape:current-layer="Capa_1"
   inkscape:document-rotation="0" />
<path
   style="fill:#184656;fill-opacity:1"
   d="M149.944,101.607l-29.896-29.958c-6.935-6.949-16.16-10.775-25.977-10.775  c-9.817,0-19.042,3.827-25.976,10.775L46.424,93.367c-14.265,14.293-14.265,37.551,0,51.845l29.959,30.021  c2.93,2.936,6.773,4.404,10.618,4.404c3.833,0,7.668-1.461,10.596-4.382c5.864-5.852,46.47-46.591,52.326-52.435  C155.786,116.969,155.796,107.472,149.944,101.607z"
   id="path833" />
<path
   style="fill:#184656;fill-opacity:1"
   d="M256,3c-8.284,0-15,6.716-15,15v48c0,8.284,6.716,15,15,15c8.284,0,15-6.716,15-15V18  C271,9.716,264.284,3,256,3z"
   id="path835" />
<path
   style="fill:#184656;fill-opacity:1"
   d="M293,0h-74c-8.284,0-15,6.716-15,15s6.716,15,15,15h74c8.284,0,15-6.716,15-15S301.284,0,293,0z"
   id="path837" />
<path
   style="fill:#184656;fill-opacity:1"
   d="M256,0h-37c-8.284,0-15,6.716-15,15s6.716,15,15,15h37V0z"
   id="path839" />
<path
   style="fill:#466b78;fill-opacity:1"
   d="M418.645,118.615C375.203,75.083,317.441,51.108,256,51.108S136.797,75.083,93.355,118.615  c-43.434,43.524-67.354,101.391-67.354,162.939s23.92,119.415,67.354,162.939C136.797,488.025,194.559,512,256,512  s119.203-23.975,162.645-67.507c43.434-43.524,67.354-101.391,67.354-162.939S462.079,162.139,418.645,118.615z"
   id="path841" />
<path
   style="fill:#466b78;fill-opacity:1"
   d="M256,51.108c-61.441,0-119.203,23.975-162.645,67.507c-43.434,43.524-67.354,101.391-67.354,162.939  s23.92,119.415,67.354,162.939C136.797,488.025,194.559,512,256,512V51.108z"
   id="path843" />
<path
   style="fill:#74ccb8;fill-opacity:1"
   d="M256,108.538c-95.218,0-172.684,77.614-172.684,173.015S160.782,454.569,256,454.569  s172.684-77.615,172.684-173.016S351.218,108.538,256,108.538z"
   id="path845" />
<path
   style="fill:#F4F2E6;"
   d="M256,108.538c-95.218,0-172.684,77.614-172.684,173.015S160.782,454.569,256,454.569V108.538z"
   id="path847" />
<path
   style="fill:#184656;fill-opacity:1"
   d="m 256,146.007 c 8.284,0 15,-6.716 15,-15 v -21.808 c -4.945,-0.428 -9.946,-0.66 -15,-0.66 -5.054,0 -10.055,0.232 -15,0.66 v 21.808 c 0,8.284 6.716,15 15,15 z"
   id="path849" /><path
   style="fill:#184656;fill-opacity:1"
   d="m 256,417.101 c -8.284,0 -15,6.716 -15,15 v 21.808 c 4.945,0.428 9.946,0.66 15,0.66 5.054,0 10.055,-0.232 15,-0.66 v -21.808 c 0,-8.284 -6.716,-15 -15,-15 z"
   id="path851" /><path
   style="fill:#184656;fill-opacity:1"
   d="m 428.028,266.554 h -21.481 c -8.284,0 -15,6.716 -15,15 0,8.284 6.716,15 15,15 h 21.481 c 0.426,-4.945 0.656,-9.946 0.656,-15 0,-5.054 -0.23,-10.055 -0.656,-15 z"
   id="path853" /><path
   style="fill:#184656;fill-opacity:1"
   d="m 120.453,281.554 c 0,-8.284 -6.716,-15 -15,-15 H 83.972 c -0.426,4.945 -0.656,9.946 -0.656,15 0,5.054 0.23,10.055 0.656,15 h 21.481 c 8.284,0 15,-6.716 15,-15 z"
   id="path855" /><path
   style="fill:#184656;fill-opacity:1"
   d="M 293,272.897 H 271.838 V 212.23 c 0,-8.284 -6.716,-15 -15,-15 -8.284,0 -15,6.716 -15,15 v 75.667 c 0,8.284 6.716,15 15,15 H 293 c 8.284,0 15,-6.716 15,-15 0,-8.284 -6.716,-15 -15,-15 z"
   id="path857" />
<g
   id="g861">
</g>
<g
   id="g863">
</g>
<g
   id="g865">
</g>
<g
   id="g867">
</g>
<g
   id="g869">
</g>
<g
   id="g871">
</g>
<g
   id="g873">
</g>
<g
   id="g875">
</g>
<g
   id="g877">
</g>
<g
   id="g879">
</g>
<g
   id="g881">
</g>
<g
   id="g883">
</g>
<g
   id="g885">
</g>
<g
   id="g887">
</g>
<g
   id="g889">
</g>
</svg>
