<?xml version="1.0" encoding="UTF-8" standalone="no"?>
<svg
   xmlns:dc="http://purl.org/dc/elements/1.1/"
   xmlns:cc="http://creativecommons.org/ns#"
   xmlns:rdf="http://www.w3.org/1999/02/22-rdf-syntax-ns#"
   xmlns:svg="http://www.w3.org/2000/svg"
   xmlns="http://www.w3.org/2000/svg"
   xmlns:sodipodi="http://sodipodi.sourceforge.net/DTD/sodipodi-0.dtd"
   xmlns:inkscape="http://www.inkscape.org/namespaces/inkscape"
   version="1.1"
   id="Capa_1"
   x="0px"
   y="0px"
   viewBox="0 0 512 512"
   style="enable-background:new 0 0 512 512;"
   xml:space="preserve"
   sodipodi:docname="audio.svg"
   inkscape:version="1.0.1 (3bc2e813f5, 2020-09-07)"><metadata
   id="metadata937"><rdf:RDF><cc:Work
       rdf:about=""><dc:format>image/svg+xml</dc:format><dc:type
         rdf:resource="http://purl.org/dc/dcmitype/StillImage" /></cc:Work></rdf:RDF></metadata><defs
   id="defs935">
	
	
	
</defs><sodipodi:namedview
   pagecolor="#ffffff"
   bordercolor="#666666"
   borderopacity="1"
   objecttolerance="10"
   gridtolerance="10"
   guidetolerance="10"
   inkscape:pageopacity="0"
   inkscape:pageshadow="2"
   inkscape:window-width="1600"
   inkscape:window-height="837"
   id="namedview933"
   showgrid="false"
   inkscape:zoom="1.3085938"
   inkscape:cx="256"
   inkscape:cy="256"
   inkscape:window-x="-8"
   inkscape:window-y="-8"
   inkscape:window-maximized="1"
   inkscape:current-layer="Capa_1"
   inkscape:document-rotation="0" />
<path
   style="fill:#f9eea0;fill-opacity:1"
   d="m 352.408,491.948 c -5.781,0 -11.291,-3.361 -13.753,-8.998 -3.317,-7.592 0.147,-16.435 7.739,-19.751 C 428.772,427.206 482,345.875 482,255.997 481.996,166.124 428.772,84.795 346.402,48.803 338.81,45.486 335.345,36.643 338.663,29.052 341.98,21.46 350.823,17.992 358.414,21.313 451.71,62.079 511.996,154.198 512,255.996 512,357.8 451.711,449.922 358.406,490.689 c -1.955,0.855 -3.993,1.259 -5.998,1.259 z"
   id="path886" /><path
   style="fill:#f9eea0;fill-opacity:1"
   d="m 352.413,378.768 c -4.118,0 -8.218,-1.686 -11.181,-4.995 -5.525,-6.173 -5.002,-15.655 1.171,-21.181 27.452,-24.575 43.196,-59.783 43.196,-96.596 0,-36.812 -15.744,-72.019 -43.196,-96.594 -6.173,-5.525 -6.696,-15.008 -1.171,-21.181 5.525,-6.171 15.009,-6.696 21.181,-1.171 33.801,30.258 53.187,73.612 53.187,118.945 0,45.334 -19.386,88.689 -53.187,118.947 -2.862,2.567 -6.438,3.826 -10,3.826 z"
   id="path888" /><path
   style="fill:#f9eea0;fill-opacity:1"
   d="m 262.78,57.851 c -5.042,-2.556 -11.093,-2.059 -15.65,1.284 L 130.59,144.596 H 15 c -8.283,0 -15,6.716 -15,15 v 192.801 c 0,8.284 6.717,15 15,15 h 115.59 l 116.539,85.463 c 2.623,1.924 5.738,2.904 8.873,2.904 2.313,0 4.637,-0.535 6.778,-1.62 5.042,-2.554 8.22,-7.728 8.22,-13.38 V 71.231 c 0,-5.652 -3.178,-10.825 -8.22,-13.38 z"
   id="path890" />
<g
   id="g900"
   style="fill:#f7cc7e;fill-opacity:1">
	<path
   style="fill:#f7cc7e;fill-opacity:1"
   d="M482,255.998c0,89.878-53.228,171.208-135.605,207.201c-7.592,3.316-11.057,12.159-7.739,19.751   c2.462,5.637,7.972,8.998,13.753,8.998c2.005,0,4.043-0.404,5.998-1.259C451.711,449.922,511.999,357.801,512,255.998H482z"
   id="path894" />
	<path
   style="fill:#f7cc7e;fill-opacity:1"
   d="M342.403,352.593c-6.173,5.525-6.696,15.008-1.171,21.181c2.963,3.31,7.063,4.995,11.181,4.995   c3.562,0,7.138-1.26,10-3.824c33.801-30.258,53.187-73.613,53.187-118.946h-30C385.6,292.809,369.854,328.017,342.403,352.593z"
   id="path896" />
	<path
   style="fill:#f7cc7e;fill-opacity:1"
   d="M0,352.397c0,8.284,6.717,15,15,15h115.59l116.539,85.463c2.623,1.924,5.738,2.904,8.873,2.904   c2.313,0,4.637-0.535,6.778-1.62c5.042-2.554,8.22-7.728,8.22-13.38V255.998H0V352.397z"
   id="path898" />
</g>
<g
   id="g902">
</g>
<g
   id="g904">
</g>
<g
   id="g906">
</g>
<g
   id="g908">
</g>
<g
   id="g910">
</g>
<g
   id="g912">
</g>
<g
   id="g914">
</g>
<g
   id="g916">
</g>
<g
   id="g918">
</g>
<g
   id="g920">
</g>
<g
   id="g922">
</g>
<g
   id="g924">
</g>
<g
   id="g926">
</g>
<g
   id="g928">
</g>
<g
   id="g930">
</g>
</svg>
